<?xml version="1.0" standalone="no"?>
<!DOCTYPE svg PUBLIC "-//W3C//DTD SVG 20010904//EN"
 "http://www.w3.org/TR/2001/REC-SVG-20010904/DTD/svg10.dtd">
<svg version="1.0" xmlns="http://www.w3.org/2000/svg"
 width="512.000000pt" height="512.000000pt" viewBox="0 0 512.000000 512.000000"
 preserveAspectRatio="xMidYMid meet">
<metadata>
Created by potrace 1.11, written by Peter Selinger 2001-2013
</metadata>
<g transform="translate(0.000000,512.000000) scale(0.100000,-0.100000)"
fill="#000000" stroke="none">
<path d="M2379 5116 c-2 -2 -38 -6 -79 -10 -64 -6 -207 -29 -315 -51 -16 -3
-77 -19 -134 -36 -647 -186 -1198 -624 -1528 -1215 -27 -49 -57 -105 -65 -124
-63 -137 -79 -175 -106 -250 -72 -200 -117 -399 -139 -610 -15 -139 -8 -503
11 -615 3 -16 8 -43 10 -60 3 -25 28 -148 41 -205 2 -8 13 -46 24 -85 206
-719 726 -1321 1401 -1624 52 -23 104 -47 115 -52 63 -29 308 -101 415 -123
215 -43 290 -50 525 -51 217 0 307 8 480 41 44 8 91 18 105 20 131 25 390 118
553 200 640 319 1104 866 1316 1551 18 56 34 113 37 128 3 15 11 55 19 89 36
155 50 297 50 521 0 193 -3 251 -16 330 -4 28 -10 66 -13 85 -2 19 -10 60 -16
90 -6 30 -14 66 -16 80 -3 14 -16 64 -30 112 -144 516 -446 971 -869 1309 -74
60 -260 189 -272 189 -3 0 -14 6 -22 14 -20 18 -257 137 -331 166 -196 79
-432 142 -620 166 -25 3 -56 8 -70 10 -29 6 -456 15 -461 10z m12 -2118 c276
-414 502 -754 504 -756 1 -1 229 337 505 753 l503 755 134 0 133 0 0 -1330 0
-1330 -200 0 -200 0 -2 897 -3 896 -367 -554 -368 -555 -132 1 -133 0 -57 85
c-32 47 -61 90 -65 95 -12 14 -47 68 -53 80 -11 21 -560 845 -563 845 -2 0 -4
-388 -5 -862 0 -475 -1 -878 -1 -895 l-1 -33 -198 0 -198 0 1 1140 c0 1006 -2
1140 -15 1141 -190 11 -420 -55 -517 -148 -178 -173 -108 -499 124 -571 37
-12 92 -23 120 -25 l53 -2 0 -189 0 -189 -92 6 c-385 25 -642 252 -693 612
-21 146 9 345 70 466 25 49 94 139 134 177 113 103 301 185 496 216 141 22
138 22 372 24 l213 3 501 -753z"/>
</g>
</svg>
