<?xml version="1.0" encoding="utf-8"?>
<!-- Generator: Adobe Illustrator 22.0.1, SVG Export Plug-In . SVG Version: 6.00 Build 0)  -->
<svg version="1.1" id="Layer_1" xmlns="http://www.w3.org/2000/svg" xmlns:xlink="http://www.w3.org/1999/xlink" x="0px" y="0px"
	 viewBox="0 0 672.7 370.2" style="enable-background:new 0 0 672.7 370.2;" xml:space="preserve">
<style type="text/css">
	.st0{fill:none;stroke:#BC262F;stroke-width:3;stroke-linecap:round;stroke-linejoin:round;stroke-miterlimit:10;}
</style>
<g>
	<path class="st0" d="M283.6,213.1c0-24.4,41-44.1,91.6-44.1c50.6,0,91.6,19.8,91.6,44.1c0,43.1-72.6,78.1-162,78.1
		c-89.5,0-162-34.9-162-78.1c0-65.6,110.4-118.8,246.7-118.8c136.2,0,246.7,53.2,246.7,118.8"/>
	<path class="st0" d="M520.9,161.4c18.7,12.7,29.8,28.3,29.8,45.1c0,65.6-110.4,118.8-246.7,118.8c-136.2,0-246.7-53.2-246.7-118.8"
		/>
	<path class="st0" d="M228.3,195.1c11.5-37.7,78.9-66.7,160.3-66.7c45.1,0,85.8,8.9,115.2,23.2"/>
	<path class="st0" d="M409.7,206.5c0,24.4-41,44.1-91.6,44.1c-44.7,0-81.9-15.4-90-35.8"/>
	<path class="st0" d="M631.3,238.5c-12.2,0-22,9.9-22,22v0c0-12.2-9.9-22-22-22c12.2,0,22-9.9,22-22v0
		C609.2,228.6,619.1,238.5,631.3,238.5z"/>
	<path class="st0" d="M501.2,44c-12.2,0-22,9.9-22,22v0c0-12.2-9.9-22-22-22c12.2,0,22-9.9,22-22v0C479.2,34.2,489.1,44,501.2,44z"
		/>
	<path class="st0" d="M90.5,313.2c-12.2,0-22,9.9-22,22v0c0-12.2-9.9-22-22-22c12.2,0,22-9.9,22-22v0
		C68.5,303.4,78.4,313.2,90.5,313.2z"/>
	<path class="st0" d="M152.4,144.3c-12.2,0-22,9.9-22,22v0c0-12.2-9.9-22-22-22c12.2,0,22-9.9,22-22v0
		C130.3,134.5,140.2,144.3,152.4,144.3z"/>
	<path class="st0" d="M531.8,158.6c-12.2,0-22,9.9-22,22v0c0-12.2-9.9-22-22-22c12.2,0,22-9.9,22-22v0
		C509.7,148.7,519.6,158.6,531.8,158.6z"/>
	<path class="st0" d="M246.6,204.9c-12.2,0-22,9.9-22,22v0c0-12.2-9.9-22-22-22c12.2,0,22-9.9,22-22v0
		C224.5,195,234.4,204.9,246.6,204.9z"/>
	<path class="st0" d="M389.4,201.3c-12.2,0-22,9.9-22,22v0c0-12.2-9.9-22-22-22c12.2,0,22-9.9,22-22v0
		C367.4,191.4,377.2,201.3,389.4,201.3z"/>
</g>
</svg>
